<svg id="Capa_1" enable-background="new 0 0 512 512" height="512" viewBox="0 0 512 512" width="512" xmlns="http://www.w3.org/2000/svg"><g><path d="m447.484 229.236-121.528-70.164c-3.43-1.981-7.659.767-7.244 4.706l3.843 36.467s-32.664-8.201-49.584 11.302l-234.994-135.674c-9.715-5.609-22.555-2.422-27.981 7.396-5.262 9.521-1.948 21.543 7.513 27.006l39.713 22.928c3.296 1.903 4.425 6.118 2.522 9.414-9.15 15.848-3.72 36.113 12.128 45.263l183.741 106.083c-6.965 7.93-12.463 19.677-7.665 35.504-16.353-.571-40.034.007-55.868.538-4.871.163-6.473 6.605-2.252 9.042l146.909 84.818c53.796 31.059 122.654 12.401 153.367-41.718 30.472-53.692 10.846-122.043-42.62-152.911z" fill="#ffe8a0"/><path d="m447.484 229.236-.858-.495c35.243 36.597 44.493 93.179 18.269 139.389-25.888 45.618-77.68 67.144-126.266 56.796 53.509 29.552 121.121 10.71 151.475-42.778 30.472-53.693 10.846-122.043-42.62-152.912z" fill="#ffd78c"/><path d="m431.056 265.401-36.909-21.313c-12.064-6.965-27.49-2.832-34.455 9.232l-.504.873c-3.595 6.226-11.556 8.36-17.783 4.765l-5.875-3.392c-8.305-4.795-18.924-1.949-23.719 6.355-4.795 8.305-1.949 18.924 6.355 23.719l25.258 14.582c4.544 2.623 6.402 8.178 4.466 13.055-1.182 2.979-2.153 6.002-2.918 9.051-1.685 6.721-9.401 9.899-15.401 6.435l-1.486-.858c-9.386-5.419-21.387-2.203-26.805 7.182s-2.203 21.387 7.182 26.805l49.227 28.421c34.474 19.904 79.043 9.071 99.392-25.142 20.677-34.76 8.896-79.609-26.025-99.77z" fill="#fe7d43"/><path d="m453.1 285.081c4.964 18.26 2.83 38.444-7.64 56.046-20.349 34.213-64.917 45.046-99.392 25.142l-46.602-26.906c-2.507 8.494.988 17.908 8.996 22.531l49.227 28.421c34.474 19.904 79.043 9.071 99.392-25.142 15.402-25.893 12.784-57.377-3.981-80.092z" fill="#fd5426"/><path d="m425.046 393.732c4.902-13.894-.611-29.741-13.833-37.375-14.926-8.617-34.011-3.503-42.628 11.422-4.911 8.505-5.356 18.359-2.074 26.859 19.195 7.925 40.445 7.253 58.535-.906z" fill="#fd5426"/><path d="m421.237 365.568c-16.383 9.955-36.407 13.15-55.434 8.576-2.121 6.825-1.781 14.049.708 20.496 10.791 4.455 22.23 6.192 33.393 5.411.024-.002.047-.004.071-.006 8.826-.627 17.381-2.844 25.071-6.312 3.376-9.57 1.811-20.065-3.809-28.165z" fill="#d73d24"/><path d="m431.056 265.401-29.056-16.779c-9.058 16.013-3.537 36.365 12.428 45.582 13.649 7.88 30.528 5.078 40.974-5.804-6.012-9.18-14.193-17.137-24.346-22.999z" fill="#fd5426"/><g><path d="m204.229 180.164 65.429 37.776c3.114 1.798 7.062 1.134 9.416-1.58 13.673-15.762 41.912-9.029 42.181-8.963 2.373.594 4.893-.004 6.744-1.611 1.85-1.606 2.799-4.014 2.542-6.45l-3.306-31.369 117.249 67.693c28.836 16.649 48.489 46.271 52.571 79.241.471 3.798 3.703 6.58 7.434 6.58.308 0 .618-.019.932-.058 4.111-.509 7.031-4.255 6.522-8.365-4.658-37.611-27.071-71.402-59.958-90.389l-121.745-70.289c-4.046-2.336-8.993-2.207-12.909.338-3.918 2.545-6.047 7.012-5.558 11.658l2.831 26.859c-11.157-1.002-29.093-.376-42.378 10.865l-60.495-34.927c-3.588-2.072-8.175-.842-10.246 2.745-2.073 3.588-.844 8.176 2.744 10.246z"/><path d="m504.763 341.456c-4.075-.786-8.004 1.871-8.791 5.937-2.122 10.954-6.013 21.47-11.565 31.254-13.877 24.452-36.453 41.979-63.57 49.353-27.121 7.375-55.46 3.698-79.798-10.354l-139.122-80.323c15.132-.423 33.051-.71 46.163-.252 2.404.083 4.731-1.004 6.207-2.923s1.935-4.432 1.233-6.749c-3.254-10.733-1.247-20.037 6.136-28.442 1.483-1.688 2.131-3.952 1.766-6.169s-1.705-4.154-3.651-5.277l-184.07-106.271c-5.944-3.431-10.195-8.972-11.971-15.601s-.865-13.553 2.567-19.497c1.924-3.332 2.435-7.214 1.439-10.93-.996-3.717-3.38-6.823-6.711-8.746l-39.785-22.97c-5.881-3.396-7.995-10.991-4.712-16.931 1.567-2.836 4.229-4.898 7.496-5.807 3.443-.958 7.168-.496 10.22 1.265l139.705 80.659c3.587 2.071 8.174.841 10.246-2.745 2.071-3.587.842-8.174-2.745-10.246l-139.706-80.659c-6.516-3.762-14.439-4.755-21.739-2.727-7.177 1.996-13.075 6.614-16.607 13.004-7.21 13.045-2.57 29.723 10.342 37.178l39.27 22.673c-5.192 9.297-6.532 20.054-3.771 30.361 2.814 10.499 9.547 19.275 18.961 24.71l176.851 102.105c-4.694 7.848-6.667 16.474-5.845 25.538-15.134-.168-33.347.284-47.085.744-5.567.187-10.216 3.943-11.567 9.346-1.353 5.409.983 10.916 5.812 13.704l147.172 84.97c18.447 10.65 38.9 16.088 59.628 16.087 10.541 0 21.154-1.407 31.606-4.249 31.004-8.431 56.816-28.469 72.68-56.425 6.358-11.203 10.814-23.249 13.247-35.805.788-4.066-1.869-8.002-5.936-8.79z"/><path d="m338.264 320.601c-.301 1.196-1.181 1.729-1.679 1.941-.525.222-1.577.497-2.725-.166l-1.488-.859c-6.282-3.627-13.6-4.592-20.609-2.713-7.007 1.878-12.863 6.372-16.49 12.654-7.487 12.969-3.029 29.612 9.94 37.099l49.315 28.472c12.816 7.399 26.861 10.918 40.717 10.917 11.296-.001 22.462-2.345 32.727-6.828.535-.166 1.04-.407 1.524-.686 14.089-6.502 26.375-17.089 34.799-31.252 11.039-18.56 14.118-40.282 8.668-61.162-5.451-20.884-18.746-38.328-37.436-49.119-6.418-3.706-27.347-15.791-36.975-21.351-15.648-9.033-35.728-3.654-44.763 11.995l-.504.874c-.74 1.282-1.935 2.198-3.365 2.581-1.434.383-2.925.186-4.204-.553l-5.885-3.398c-5.758-3.325-12.467-4.209-18.89-2.487-6.423 1.721-11.792 5.84-15.116 11.599-3.325 5.759-4.208 12.468-2.487 18.892 1.721 6.423 5.84 11.791 11.599 15.116l25.303 14.608c1.305.753 1.831 2.358 1.253 3.815-1.295 3.255-2.381 6.624-3.229 10.011zm107.708-33.448c-8.069 5.166-18.494 5.571-27.104.6-10.082-5.82-14.825-17.479-12.419-28.322l21.576 12.459c6.976 4.028 13.013 9.207 17.947 15.263zm-98.234 6.631-25.303-14.608c-2.289-1.321-3.926-3.455-4.61-6.008-.685-2.552-.333-5.219.988-7.508s3.455-3.926 6.007-4.61c2.553-.684 5.219-.333 7.507.988l5.885 3.398c4.75 2.743 10.287 3.473 15.588 2.052 5.3-1.421 9.729-4.819 12.474-9.572l.504-.874c4.898-8.485 15.784-11.403 24.27-6.503l2.027 1.171c-6.286 18.234 1.028 39.069 18.29 49.035 6.45 3.724 13.546 5.536 20.585 5.535 7.752 0 15.426-2.21 22.085-6.471 1.836 3.804 3.319 7.815 4.41 11.998 4.429 16.968 1.926 34.62-7.046 49.705-4.366 7.341-10.022 13.486-16.516 18.352-1.09-11.562-7.378-22.316-17.731-28.93-3.49-2.23-8.129-1.209-10.359 2.283-2.231 3.49-1.208 8.129 2.282 10.359 8.435 5.389 12.452 15.259 10.442 24.818-14.513 5.662-31.004 6.181-46.341.765-1.432-5.903-.571-12.116 2.509-17.452 1.979-3.427 4.793-6.322 8.14-8.372 3.532-2.164 4.642-6.782 2.478-10.314-2.165-3.532-6.782-4.64-10.314-2.478-5.473 3.353-10.07 8.078-13.295 13.664-3.095 5.36-4.808 11.263-5.134 17.253l-44.85-25.894c-5.805-3.352-7.801-10.802-4.45-16.608 1.623-2.812 4.245-4.824 7.382-5.664 1.048-.28 2.111-.419 3.166-.419 2.107 0 4.186.553 6.059 1.634l1.488.859c4.949 2.858 10.808 3.219 16.076.987 5.221-2.212 9.004-6.623 10.379-12.105.689-2.749 1.569-5.482 2.618-8.124 3.355-8.438.118-17.834-7.69-22.342z"/><path d="m215.917 143.065 29.946 17.29c1.181.682 2.471 1.006 3.743 1.006 2.592 0 5.113-1.345 6.502-3.752 2.071-3.587.842-8.174-2.745-10.246l-29.946-17.29c-3.588-2.072-8.174-.842-10.246 2.745-2.071 3.588-.842 8.175 2.746 10.247z"/><path d="m178.222 290.296-82.44-47.596c-3.589-2.072-8.175-.842-10.246 2.745-2.071 3.588-.842 8.175 2.745 10.246l82.44 47.596c1.181.682 2.471 1.006 3.743 1.006 2.592 0 5.113-1.346 6.502-3.752 2.073-3.587.844-8.174-2.744-10.245z"/><path d="m122.936 95.744 23.536 13.589c1.181.682 2.471 1.006 3.743 1.006 2.592 0 5.113-1.346 6.502-3.752 2.071-3.588.842-8.175-2.745-10.246l-23.536-13.589c-3.588-2.072-8.174-.842-10.246 2.745-2.07 3.589-.841 8.176 2.746 10.247z"/></g></g></svg>