<svg xmlns="http://www.w3.org/2000/svg" xmlns:xlink="http://www.w3.org/1999/xlink" id="Layer_1" x="0" y="0" enable-background="new 0 0 1920 1080" version="1.1" viewBox="0 0 1920 1080" xml:space="preserve"><style type="text/css">.st0{fill:#1a1a1a}.st1{fill:#285680}.st2{fill:#24ae5f}.st3{fill:#fac176}.st4{fill:#88c057}.st5{fill:#f18d46}.st6{fill:#e64c3c}.st7{fill:#f0c419}</style><polyline points="0 1080 1920 1080 1920 0 0 0" class="st0"/><g><circle cx="1598.06" cy="781.78" r="474.98" class="st1"/><g><path d="M1123.38,764.74c-2.37,65.96,8.85,129.24,31.11,187.18c15.44,3.16,41.51,17.09,49.98,17 c0.43-1.82-116.79-125.03-35.32-107.34c52.45,11.4,48.65,108.55,101.94,106.29c43.68-100.64-71.04-140.4-67.45-227.08 c1.2-28.92-41.87-104.62-32.05-118.42c39.75-55.87,170.86,19.23,124.81,61.42c-43.61,40.59,11.08,102.7,76.83,102.36 c1.77-21.85-61.01-33.46-39.26-52.38c23.97-20.84,70.39-11.34,80.03,19.03c9.7,30.57-85.37,145.7-15.48,119.09 c77.55-29.24,132.01,100.68,105.83-29.44c-12.4-61.35,33.16-39.47,56.27-67.37c27.46-33.23-35.56-20.35-25.15-44.92 c15.33-35.75,49.94,8.04,25.74-49.69c-27.99-67.69,18.48-40.97,50.18-60.25c59.18-36.16,118.05-128.14,43.41-180.13 c-17.6-12.25-160.37-9.92-62.16-79.59c62.39-44.24-70.65-33.07-105.22-40.6C1285,368.23,1131.21,546.6,1123.38,764.74z" class="st2"/></g><path d="M1814.49,725.32l-68.75,85.18l0.2,58.76l-21.34,60.19l-34.56,46.47l21.1,108.98l19.96,45.34l65.03,51.99 l78.94-14.74c6.65-4.78,13.17-9.74,19.56-14.85l46.15-90.25l10.59-61.65l76.98-34.15l7.65-0.84 c21.66-51.54,34.61-107.76,36.74-166.93c1.47-40.82-2.27-80.62-10.62-118.78l-73.93-15.13l-43.91-58.27l-72.5-26.15l-4.73,118.19 L1814.49,725.32z" class="st3"/><path d="M1657.3,1253.05c-0.12-2.27-0.3-2.57-0.49-2.77c-20.45-21.99-23.37-39.8-54.57-58.63s-31.96,2.39-84.9-3.05 c-52.94-5.44-28.43,2.52-84.9-3.05c-20.32-2.01-31.59-0.27-40.48,24.2c57.42,27.68,121.3,44.28,189.06,46.71 C1606.91,1257.38,1632.38,1256.15,1657.3,1253.05z" class="st4"/><path d="M1991.48,779.51c-1.99,17.68-24.81,82.42-52.63,96.45c-27.82,14.03-75.37,45.1-67.24,46.75 c5.53,1.13-50.25,147.52-89.83,248.04l14.35,11.48l78.94-14.74c6.65-4.78,13.17-9.74,19.56-14.85l46.15-90.25l10.59-61.65 l76.98-34.15l7.65-0.84c21.66-51.54,34.61-107.76,36.74-166.93c1.47-40.82-2.27-80.62-10.62-118.78l-56.05-11.47 c-2.9,8.24-6.68,17.72-11.65,29.1C1975.07,742.05,1993.47,761.83,1991.48,779.51z" class="st3"/><path d="M1944.27,606.65l-72.5-26.15l-4.73,118.19l-52.55,26.65l-68.75,85.18l0.2,58.76l-21.34,60.19l-34.56,46.47 l21.1,108.98l19.96,45.33l50.66,40.51c39.6-100.52,95.38-246.91,89.85-248.04c-8.14-1.65,39.41-32.72,67.24-46.75 c27.82-14.03,50.63-78.77,52.63-96.45c1.99-17.68-16.4-37.46,2.94-81.84c4.96-11.38,8.75-20.86,11.65-29.1l-17.88-3.66 L1944.27,606.65z" class="st4"/><path d="M1138.4,662.19c28.33,50.92,81.68,105.59,167.38,43.54c0,0,105.24,92.9,148.49-27.45 c0,0,206.23-66.35-8.73-213.37c0,0,159.96,24.18,133.88-77.14c-10.14-39.39-36.71-61.29-65.38-73.48 C1332.09,346.8,1184.74,483.38,1138.4,662.19z" class="st3"/><path d="M1533.16,409.1c-0.03,0.74-0.12,1.08-0.12,1.08c-7.18,7.02-48.77,10.89-80.15,6.14l-35.08,89.14 c57.22,39.14,76.95,69.3,76.45,83.23c-0.59,16.43-36.66,36.92-55.03,42.82l-23.03,7.4l-8.16,22.75 c-5.79,16.1-13.33,27.1-19.68,28.73c-13.07,3.35-39.53-12.22-50.07-21.51l-29.47-26.02l-31.87,23.06 c-13.85,10.02-33.79,21.22-50.14,17.59c-11.48-2.54-23.67-12.6-35.2-28.81c45.36-145.47,166.29-256.42,315.34-288.93 c13.14,8.26,20.98,19.19,24.86,34.24C1533.08,404.89,1533.2,407.79,1533.16,409.1C1533.16,409.08,1533.16,409.08,1533.16,409.1z" class="st5"/><circle cx="1447.89" cy="399.44" r="16.38" class="st6"/><circle cx="1227.46" cy="604.58" r="16.38" class="st6"/><circle cx="1308.72" cy="623.89" r="16.38" class="st6"/><circle cx="1391.15" cy="610.46" r="16.38" class="st6"/><circle cx="1459.56" cy="530.97" r="16.38" class="st6"/><ellipse cx="1340.22" cy="508.45" class="st6" rx="106.46" ry="65.52" transform="matrix(0.8054 -0.5928 0.5928 0.8054 -40.5442 893.4169)"/><circle cx="1306.11" cy="468.1" r="90.08" class="st7"/><circle cx="1254.99" cy="294.18" r="16.38" class="st7"/><circle cx="1286.56" cy="328.09" r="16.38" class="st7"/><circle cx="1140.42" cy="290.06" r="16.38" class="st7"/><circle cx="1171.98" cy="323.98" r="16.38" class="st7"/><circle cx="1203.54" cy="357.89" r="16.38" class="st7"/><circle cx="1235.1" cy="391.8" r="16.38" class="st7"/><circle cx="1136.31" cy="404.64" r="16.38" class="st7"/><circle cx="1167.87" cy="438.55" r="16.38" class="st7"/></g></svg>