<svg xmlns="http://www.w3.org/2000/svg" xmlns:xlink="http://www.w3.org/1999/xlink" id="Layer_1" x="0" y="0" enable-background="new 0 0 1920 301" version="1.1" viewBox="0 0 1920 301" xml:space="preserve"><style type="text/css">.st0{fill:#ffd586}.st1{fill:#ffedb9}.st2{fill:#e7b27e}</style><g><path d="M110.66,287.19H27.07V-0.5h112.5l39.84,143.55c0.52,1.95,1.56,6.42,3.13,13.38 c1.56,6.97,3.77,16.57,6.64,28.81c1.82-9.63,3.52-18.07,5.08-25.29s2.93-12.66,4.1-16.31L239.18-0.5h112.3v287.7h-83.59l0.78-141.6 c0-8.59,0.03-16.96,0.1-25.1c0.06-8.14,0.16-16.57,0.29-25.29c-3.13,14.84-6.9,31.05-11.33,48.63l-0.59,2.54L221.6,287.19h-64.45 l-35.94-137.7c-1.69-6.25-3.39-13.41-5.08-21.48c-1.69-8.07-3.91-19.01-6.64-32.81c0.39,12.37,0.68,22.98,0.88,31.84 c0.2,8.86,0.29,15.95,0.29,21.29V287.19z" class="st0"/><path d="M405.78,287.19V-0.5h229.89v68.95H498.16v38.28h116.25v66.02H498.16v44.53h143.16v69.92H405.78z" class="st0"/><path d="M745.04,287.19V75.28h-82.81V-0.5h258.01v75.78h-82.81v211.91H745.04z" class="st0"/><path d="M950.12,287.19V-0.5h229.89v68.95H1042.5v38.28h116.25v66.02H1042.5v44.53h143.16v69.92H950.12z" class="st0"/></g><g><path d="M1373.16,5.4c0.63,0.05,1.26,0.11,1.89,0.16C1374.43,5.51,1373.8,5.45,1373.16,5.4z" class="st1"/><path d="M1366.08,5.05c0.45,0.01,0.9,0.03,1.35,0.05C1366.98,5.08,1366.54,5.06,1366.08,5.05z" class="st1"/><path d="M1369.64,5.18c0.56,0.03,1.12,0.07,1.69,0.1C1370.76,5.25,1370.2,5.21,1369.64,5.18z" class="st1"/><path d="M1221.09,151.2c-0.01-0.39-0.03-0.79-0.04-1.18C1221.05,150.42,1221.07,150.81,1221.09,151.2z" class="st1"/><path d="M1221.85,161.99c-0.06-0.51-0.11-1.02-0.16-1.54C1221.74,160.97,1221.79,161.48,1221.85,161.99z" class="st1"/><path d="M1399.97,10.03c22.73,6.24,43.18,18.01,59.81,33.77c-5.61-0.68-11.31-1.06-17.1-1.06 c-6.55,0-12.99,0.46-19.3,1.32c0.26,0.35,0.52,0.7,0.77,1.07c5.38,7.94,4.73,17.77-1.45,21.96c-6.18,4.18-15.55,1.13-20.92-6.81 c-2.24-3.31-3.43-6.95-3.62-10.37c-10.71,3.55-20.86,8.34-30.26,14.21c2.52,3.21,4.03,7.25,4.03,11.65 c0,10.42-8.45,18.87-18.87,18.87c-5.68,0-10.77-2.51-14.23-6.49c-23.37,25.24-37.65,59-37.65,96.1c0,40.45,17,76.91,44.22,102.7 c-45.94-5.54-85.1-33.07-106.64-71.76c24.16,43.43,70.51,72.82,123.73,72.82c78.15,0,141.5-63.35,141.5-141.5 C1504,81.33,1459.93,26.45,1399.97,10.03z M1330.85,114.85c1.79-1.75,4.91-1.75,6.7,0c0.85,0.9,1.37,2.12,1.37,3.35 c0,1.23-0.52,2.45-1.37,3.35c-0.9,0.85-2.12,1.37-3.35,1.37c-1.23,0-2.46-0.52-3.35-1.37c-0.85-0.9-1.37-2.12-1.37-3.35 C1329.48,116.93,1330,115.75,1330.85,114.85z M1328.12,234.75c-0.9,0.85-2.12,1.37-3.35,1.37c-1.23,0-2.46-0.52-3.35-1.37 c-0.85-0.9-1.37-2.12-1.37-3.35c0-1.23,0.52-2.45,1.37-3.35c1.79-1.75,4.91-1.75,6.7,0c0.85,0.9,1.37,2.12,1.37,3.35 C1329.48,232.63,1328.96,233.85,1328.12,234.75z M1329.48,181.88c0-14.33,11.61-25.94,25.94-25.94c14.33,0,25.94,11.61,25.94,25.94 s-11.61,25.94-25.94,25.94C1341.1,207.82,1329.48,196.2,1329.48,181.88z M1379.17,263.77c-11.59,3.1-22.9-1.55-25.27-10.39 c-2.37-8.84,5.11-18.52,16.7-21.63c11.59-3.1,22.9,1.55,25.27,10.39C1398.24,250.99,1390.76,260.67,1379.17,263.77z M1413.02,178.15c-0.9,0.85-2.12,1.37-3.35,1.37c-1.23,0-2.45-0.52-3.35-1.37c-0.85-0.9-1.37-2.12-1.37-3.35 c0-1.23,0.52-2.45,1.37-3.35c1.79-1.75,4.91-1.75,6.7,0c0.85,0.9,1.37,2.12,1.37,3.35 C1414.38,176.03,1413.86,177.25,1413.02,178.15z M1404.95,132.35c-7.81,0-14.15-6.34-14.15-14.15s6.33-14.15,14.15-14.15 s14.15,6.34,14.15,14.15S1412.76,132.35,1404.95,132.35z M1444.1,91.27c1.65-1.7,4.86-1.75,6.65,0c0.85,0.9,1.37,2.12,1.37,3.35 c0,1.23-0.52,2.45-1.37,3.35c-0.9,0.85-2.12,1.37-3.35,1.37c-1.28,0-2.45-0.52-3.35-1.37c-0.85-0.9-1.37-2.12-1.37-3.35 C1442.68,93.34,1443.2,92.16,1444.1,91.27z M1447.32,212.87c-5.3,5.3-12.83,6.38-16.8,2.4c-3.98-3.98-2.9-11.5,2.4-16.8 c5.3-5.3,12.83-6.38,16.8-2.4C1453.69,200.04,1452.62,207.57,1447.32,212.87z M1449.93,162.79c-7.25-1.2-11.84-10.01-10.25-19.68 c1.59-9.67,8.77-16.54,16.02-15.35c7.25,1.2,11.84,10.01,10.25,19.68C1464.36,157.12,1457.18,163.99,1449.93,162.79z" class="st1"/><path d="M1221.26,154.92c-0.03-0.47-0.06-0.93-0.08-1.4C1221.2,153.99,1221.23,154.46,1221.26,154.92z" class="st1"/><path d="M1396.78,9.19c1.02,0.25,2.04,0.52,3.06,0.8C1398.82,9.71,1397.8,9.44,1396.78,9.19z" class="st1"/><path d="M1390.24,7.73c0.91,0.18,1.81,0.37,2.71,0.57C1392.05,8.1,1391.15,7.91,1390.24,7.73z" class="st1"/><path d="M1376.66,5.7c0.69,0.07,1.38,0.15,2.07,0.23C1378.03,5.85,1377.35,5.77,1376.66,5.7z" class="st1"/><path d="M1221.51,158.49c-0.04-0.5-0.09-0.99-0.12-1.49C1221.42,157.5,1221.47,158,1221.51,158.49z" class="st1"/><path d="M1393.53,8.42c0.96,0.22,1.92,0.44,2.88,0.68C1395.45,8.87,1394.5,8.64,1393.53,8.42z" class="st1"/><path d="M1380.11,6.09c0.75,0.09,1.49,0.2,2.23,0.3C1381.6,6.29,1380.86,6.18,1380.11,6.09z" class="st1"/><path d="M1383.53,6.56c0.8,0.12,1.59,0.25,2.39,0.38C1385.12,6.81,1384.33,6.68,1383.53,6.56z" class="st1"/><path d="M1386.91,7.1c0.85,0.15,1.7,0.31,2.55,0.47C1388.61,7.41,1387.76,7.25,1386.91,7.1z" class="st1"/><path d="M1223.35,172.26c-0.1-0.53-0.19-1.07-0.29-1.61C1223.15,171.19,1223.25,171.73,1223.35,172.26z" class="st1"/><path d="M1222.27,165.45c-0.07-0.52-0.14-1.04-0.2-1.57C1222.13,164.41,1222.2,164.93,1222.27,165.45z" class="st1"/><path d="M1229.32,194.39c-0.92-2.55-1.76-5.13-2.53-7.74C1227.56,189.26,1228.4,191.84,1229.32,194.39z" class="st1"/><path d="M1231.53,200.14c-0.31-0.75-0.61-1.49-0.9-2.25C1230.92,198.65,1231.23,199.39,1231.53,200.14z" class="st1"/><path d="M1232.81,203.16c-0.32-0.74-0.64-1.48-0.96-2.23C1232.17,201.67,1232.49,202.42,1232.81,203.16z" class="st1"/><path d="M1230.35,197.15c-0.3-0.78-0.59-1.56-0.88-2.34C1229.75,195.6,1230.05,196.38,1230.35,197.15z" class="st1"/><path d="M1224.01,175.62c-0.11-0.54-0.22-1.09-0.33-1.63C1223.79,174.54,1223.89,175.08,1224.01,175.62z" class="st1"/><path d="M1225.56,182.24c-0.15-0.56-0.28-1.13-0.42-1.7C1225.27,181.11,1225.41,181.68,1225.56,182.24z" class="st1"/><path d="M1224.74,178.95c-0.13-0.55-0.25-1.1-0.37-1.65C1224.49,177.85,1224.61,178.4,1224.74,178.95z" class="st1"/><path d="M1222.77,168.88c-0.08-0.53-0.17-1.06-0.24-1.59C1222.6,167.82,1222.68,168.35,1222.77,168.88z" class="st1"/><path d="M1226.45,185.51c-0.17-0.6-0.33-1.2-0.49-1.8C1226.12,184.31,1226.28,184.91,1226.45,185.51z" class="st1"/><path d="M1235.59,209.13c-0.38-0.76-0.74-1.52-1.11-2.29C1234.85,207.61,1235.21,208.37,1235.59,209.13z" class="st1"/><path d="M1238.65,214.97c-0.45-0.82-0.9-1.65-1.34-2.48C1237.75,213.32,1238.19,214.15,1238.65,214.97z" class="st1"/><path d="M1237.09,212.07c-0.41-0.78-0.81-1.57-1.21-2.36C1236.27,210.5,1236.68,211.28,1237.09,212.07z" class="st1"/><path d="M1234.16,206.15c-0.35-0.74-0.69-1.49-1.02-2.24C1233.47,204.66,1233.82,205.41,1234.16,206.15z" class="st1"/><path d="M1345.4,286.94c-27.22-25.79-44.22-62.25-44.22-102.7c0-37.1,14.29-70.87,37.65-96.1 c3.46,3.97,8.55,6.49,14.23,6.49c10.42,0,18.87-8.45,18.87-18.87c0-4.4-1.51-8.44-4.03-11.65c9.41-5.87,19.55-10.66,30.26-14.21 c0.18,3.42,1.37,7.06,3.62,10.37c5.38,7.94,14.74,10.99,20.92,6.81c6.18-4.18,6.83-14.01,1.45-21.96 c-0.25-0.37-0.51-0.72-0.77-1.07c6.31-0.86,12.76-1.32,19.3-1.32c5.79,0,11.49,0.39,17.1,1.06 c-16.63-15.76-37.07-27.53-59.81-33.77c-0.05-0.01-0.09-0.03-0.14-0.04c-1.01-0.28-2.03-0.54-3.06-0.8 c-0.12-0.03-0.25-0.06-0.37-0.09c-0.96-0.24-1.91-0.46-2.88-0.68c-0.19-0.04-0.39-0.08-0.58-0.13c-0.9-0.2-1.8-0.39-2.71-0.57 c-0.26-0.05-0.52-0.1-0.79-0.15c-0.85-0.16-1.7-0.32-2.55-0.47c-0.33-0.06-0.66-0.11-0.99-0.16c-0.79-0.13-1.59-0.26-2.39-0.38 c-0.39-0.06-0.79-0.11-1.19-0.17c-0.74-0.1-1.48-0.21-2.23-0.3c-0.46-0.06-0.93-0.11-1.39-0.16c-0.69-0.08-1.38-0.16-2.07-0.23 c-0.53-0.05-1.07-0.09-1.6-0.14c-0.63-0.06-1.26-0.11-1.89-0.16c-0.61-0.05-1.23-0.08-1.84-0.12c-0.56-0.03-1.12-0.07-1.69-0.1 c-0.73-0.04-1.47-0.06-2.21-0.08c-0.45-0.02-0.9-0.04-1.35-0.05c-1.19-0.03-2.39-0.05-3.58-0.05C1284.35,5,1221,68.35,1221,146.5 c0,1.18,0.02,2.35,0.04,3.52c0.01,0.39,0.03,0.79,0.04,1.18c0.03,0.77,0.05,1.55,0.09,2.32c0.02,0.47,0.05,0.93,0.08,1.4 c0.04,0.69,0.08,1.39,0.13,2.08c0.04,0.5,0.08,0.99,0.12,1.49c0.05,0.66,0.11,1.31,0.17,1.96c0.05,0.51,0.11,1.03,0.16,1.54 c0.07,0.63,0.14,1.26,0.22,1.89c0.06,0.52,0.13,1.05,0.2,1.57c0.08,0.61,0.17,1.22,0.26,1.83c0.08,0.53,0.16,1.06,0.24,1.59 c0.09,0.59,0.19,1.19,0.29,1.78c0.09,0.54,0.19,1.07,0.29,1.61c0.11,0.58,0.22,1.15,0.33,1.73c0.11,0.54,0.21,1.09,0.33,1.63 c0.12,0.56,0.24,1.12,0.36,1.67c0.12,0.55,0.24,1.1,0.37,1.65c0.13,0.53,0.26,1.07,0.39,1.6c0.14,0.57,0.28,1.13,0.42,1.7 c0.13,0.49,0.26,0.98,0.4,1.47c0.16,0.6,0.32,1.2,0.49,1.8c0.11,0.38,0.23,0.76,0.34,1.14c0.77,2.61,1.61,5.2,2.53,7.74 c0.05,0.14,0.1,0.28,0.15,0.42c0.28,0.78,0.58,1.56,0.88,2.34c0.09,0.25,0.19,0.49,0.28,0.74c0.29,0.75,0.6,1.5,0.9,2.25 c0.11,0.26,0.21,0.53,0.32,0.79c0.31,0.75,0.63,1.49,0.96,2.23c0.11,0.25,0.22,0.5,0.33,0.76c0.33,0.75,0.68,1.5,1.02,2.24 c0.11,0.23,0.21,0.46,0.32,0.69c0.36,0.77,0.73,1.53,1.11,2.29c0.1,0.19,0.19,0.39,0.29,0.58c0.4,0.79,0.8,1.58,1.21,2.36 c0.07,0.14,0.15,0.28,0.22,0.43c0.44,0.83,0.88,1.66,1.34,2.48c0.04,0.07,0.08,0.14,0.12,0.21 C1260.3,253.87,1299.47,281.4,1345.4,286.94z M1403.23,38.31c5.89-3.99,14.63-1.35,20.1,5.78c-8.65,1.18-17.04,3.15-25.11,5.82 C1397.96,45.12,1399.63,40.74,1403.23,38.31z M1340.28,25.23c1.75-1.75,4.91-1.75,6.7,0c0.85,0.9,1.37,2.12,1.37,3.35 c0,1.23-0.52,2.45-1.37,3.35c-0.9,0.85-2.12,1.37-3.35,1.37c-1.23,0-2.45-0.52-3.35-1.37c-0.85-0.9-1.37-2.08-1.37-3.35 C1338.92,27.31,1339.43,26.08,1340.28,25.23z M1334.22,74.78c0.49-9.65,8.22-17.38,17.87-17.87c0.32-0.02,0.65-0.02,0.97-0.02 c6.03,0,11.33,2.88,14.78,7.27c-10.69,6.68-20.42,14.73-28.95,23.93c-2.89-3.31-4.7-7.6-4.7-12.34 C1334.2,75.42,1334.21,75.1,1334.22,74.78z M1282.44,64.08c5.54-5.54,13.97-6.11,18.82-1.25c4.85,4.85,4.29,13.28-1.25,18.82 c-5.54,5.54-13.97,6.11-18.82,1.25C1276.33,78.05,1276.89,69.62,1282.44,64.08z M1291.75,174.74c0,1.23-0.52,2.45-1.37,3.35 c-0.9,0.85-2.12,1.37-3.35,1.37c-1.23,0-2.46-0.52-3.35-1.37c-0.85-0.9-1.37-2.12-1.37-3.35c0-1.23,0.52-2.45,1.37-3.35 c1.75-1.75,4.95-1.75,6.7,0C1291.23,172.29,1291.75,173.51,1291.75,174.74z M1249.3,137.07c0-10.42,7.39-18.87,16.51-18.87 s16.51,8.45,16.51,18.87s-7.39,18.87-16.51,18.87S1249.3,147.49,1249.3,137.07z M1266.45,196.67c5.53-5.53,15.98-4.03,23.35,3.34 s8.86,17.82,3.34,23.35c-5.53,5.53-15.98,4.03-23.35-3.34C1262.42,212.64,1260.92,202.19,1266.45,196.67z" class="st0"/><ellipse cx="1265.81" cy="137.07" class="st2" rx="16.51" ry="18.87"/><ellipse cx="1279.79" cy="210" class="st2" rx="14.15" ry="18.87" transform="matrix(0.7071 -0.7071 0.7071 0.7071 226.3465 966.4575)"/><ellipse cx="1440.11" cy="205.67" class="st0" rx="13.58" ry="10.18" transform="matrix(0.7071 -0.7071 0.7071 0.7071 276.3671 1078.5541)"/><path d="M1334.2,122.92c1.23,0,2.45-0.52,3.35-1.37c0.85-0.9,1.37-2.12,1.37-3.35c0-1.23-0.52-2.45-1.37-3.35 c-1.79-1.75-4.91-1.75-6.7,0c-0.85,0.9-1.37,2.08-1.37,3.35c0,1.23,0.52,2.45,1.37,3.35 C1331.74,122.4,1332.97,122.92,1334.2,122.92z" class="st0"/><path d="M1283.68,171.39c-0.85,0.9-1.37,2.12-1.37,3.35c0,1.23,0.52,2.45,1.37,3.35c0.89,0.85,2.12,1.37,3.35,1.37 c1.23,0,2.45-0.52,3.35-1.37c0.85-0.9,1.37-2.12,1.37-3.35c0-1.23-0.52-2.45-1.37-3.35 C1288.64,169.65,1285.43,169.65,1283.68,171.39z" class="st2"/><path d="M1406.32,171.45c-0.85,0.9-1.37,2.12-1.37,3.35c0,1.23,0.52,2.45,1.37,3.35c0.89,0.85,2.12,1.37,3.35,1.37 c1.23,0,2.45-0.52,3.35-1.37c0.85-0.9,1.37-2.12,1.37-3.35c0-1.23-0.52-2.45-1.37-3.35 C1411.22,169.71,1408.11,169.71,1406.32,171.45z" class="st0"/><path d="M1447.4,99.33c1.23,0,2.45-0.52,3.35-1.37c0.85-0.9,1.37-2.12,1.37-3.35c0-1.23-0.52-2.45-1.37-3.35 c-1.79-1.75-5-1.7-6.65,0c-0.9,0.9-1.41,2.08-1.41,3.35c0,1.23,0.52,2.45,1.37,3.35C1444.94,98.81,1446.12,99.33,1447.4,99.33z" class="st0"/><path d="M1343.63,33.3c1.23,0,2.45-0.52,3.35-1.37c0.85-0.9,1.37-2.12,1.37-3.35c0-1.23-0.52-2.45-1.37-3.35 c-1.79-1.75-4.95-1.75-6.7,0c-0.85,0.85-1.37,2.08-1.37,3.35c0,1.27,0.52,2.45,1.37,3.35C1341.18,32.78,1342.41,33.3,1343.63,33.3z" class="st2"/><path d="M1321.42,228.05c-0.85,0.9-1.37,2.12-1.37,3.35c0,1.23,0.52,2.45,1.37,3.35c0.89,0.85,2.12,1.37,3.35,1.37 c1.23,0,2.45-0.52,3.35-1.37c0.85-0.9,1.37-2.12,1.37-3.35c0-1.23-0.52-2.45-1.37-3.35 C1326.32,226.31,1323.21,226.31,1321.42,228.05z" class="st0"/><circle cx="1355.43" cy="181.88" r="25.94" class="st0"/><circle cx="1404.95" cy="118.2" r="14.15" class="st0"/><ellipse cx="1374.89" cy="247.75" class="st0" rx="21.72" ry="16.57" transform="matrix(0.966 -0.2587 0.2587 0.966 -17.2906 364.1029)"/><ellipse cx="1452.83" cy="145.28" class="st0" rx="17.75" ry="13.31" transform="matrix(0.1627 -0.9867 0.9867 0.1627 1073.1116 1555.1168)"/><path d="M1338.9,88.09c8.53-9.2,18.26-17.26,28.95-23.93c-3.45-4.4-8.76-7.27-14.78-7.27c-0.33,0-0.65,0.01-0.97,0.02 c-9.65,0.49-17.38,8.22-17.87,17.87c-0.02,0.32-0.02,0.64-0.02,0.97C1334.2,80.49,1336.01,84.77,1338.9,88.09z" class="st2"/><ellipse cx="1291.22" cy="72.86" class="st2" rx="14.2" ry="12.42" transform="matrix(0.7071 -0.7071 0.7071 0.7071 326.6694 934.37)"/><path d="M1398.22,49.9c8.07-2.67,16.46-4.63,25.11-5.82c-5.47-7.13-14.21-9.77-20.1-5.78 C1399.63,40.74,1397.96,45.12,1398.22,49.9z" class="st2"/></g><rect width="1.62" height="4.85" x="1431.65" y="995.47" fill="none"/><g><path d="M1532.54,287.31V-0.39h137.7c43.1,0,73.86,6.45,92.29,19.34c18.42,12.89,27.64,34.05,27.64,63.48 c0,17.58-3.78,32.16-11.33,43.75c-7.55,11.59-19.21,20.77-34.96,27.54c16.02,3.39,27.67,10.06,34.96,20.02 c7.29,9.96,11.2,24.58,11.72,43.85l1.56,40.04c0,0.26,0.06,0.59,0.2,0.98c0.39,11.46,3.13,17.45,8.2,17.97v10.74h-93.16 c-1.69-6.9-2.96-12.92-3.81-18.07c-0.85-5.14-1.27-9.15-1.27-12.01v-28.71c0-14.84-2.93-25.29-8.79-31.35s-16.02-9.08-30.47-9.08 h-39.26v99.22H1532.54z M1623.75,123.24h41.99c14.71,0,24.87-1.98,30.47-5.96c5.6-3.97,8.4-10.9,8.4-20.8 c0-10.16-2.8-17.22-8.4-21.19c-5.6-3.97-16.54-5.96-32.81-5.96h-39.65V123.24z" class="st1"/></g></svg>